<svg xmlns="http://www.w3.org/2000/svg" version="1.1" xmlns:xlink="http://www.w3.org/1999/xlink" xmlns:svgjs="http://svgjs.dev/svgjs" width="1500" height="1500" viewBox="0 0 1500 1500"><rect width="1500" height="1500" fill="#ffffff"></rect><g transform="matrix(0.6666666666666666,0,0,0.6666666666666666,249.39393939393938,498.5403236198348)"><svg viewBox="0 0 396 199" data-background-color="#ffffff" preserveAspectRatio="xMidYMid meet" height="753" width="1500" xmlns="http://www.w3.org/2000/svg" xmlns:xlink="http://www.w3.org/1999/xlink"><g id="tight-bounds" transform="matrix(1,0,0,1,0.2400000000000091,0.18222231006549805)"><svg viewBox="0 0 395.52 198.635555379869" height="198.635555379869" width="395.52"><g><svg viewBox="0 0 397.49759999999986 199.6287331567683" height="198.635555379869" width="395.52"><g><rect width="397.49759999999986" height="3.682834980189657" x="0" y="107.20522092080982" fill="#4a596d" opacity="1" stroke-width="0" stroke="transparent" fill-opacity="1" class="rect-qz-0" data-fill-palette-color="primary" rx="1%" id="qz-0" data-palette-color="#4a596d"></rect></g><g><rect width="397.49759999999986" height="3.682834980189657" x="0" y="115.70852053475558" fill="#4a596d" opacity="1" stroke-width="0" stroke="transparent" fill-opacity="1" class="rect-qz-1" data-fill-palette-color="primary" rx="1%" id="qz-1" data-palette-color="#4a596d"></rect></g><g transform="matrix(1,0,0,1,0.9887999999999693,129.03228478245742)"><svg viewBox="0 0 395.5199999999999 70.59644837431087" height="70.59644837431087" width="395.5199999999999"><g id="textblocktransform"><svg viewBox="0 0 395.5199999999999 70.59644837431087" height="70.59644837431087" width="395.5199999999999" id="textblock"><g><svg viewBox="0 0 395.5199999999999 40.83824390243901" height="40.83824390243901" width="395.5199999999999"><g transform="matrix(1,0,0,1,0,0)"><svg width="395.5199999999999" viewBox="3.1 -37.55 368.96999999999997 38.1" height="40.83824390243901" data-palette-color="#4a596d"><path d="M14.5 0.55Q11.9 0.55 9.85 0.1 7.8-0.35 5.35-1.1L5.35-1.1Q3.85-1.65 3.1-1.7L3.1-1.7 3.5-10.75 6.7-10.75 7.55-4.25Q8.4-3.45 10.33-2.83 12.25-2.2 14.55-2.2L14.55-2.2Q18.35-2.2 20.33-3.9 22.3-5.6 22.3-8.6L22.3-8.6Q22.3-10.55 21.23-11.95 20.15-13.35 18.38-14.35 16.6-15.35 13.5-16.7L13.5-16.7Q10.7-17.95 8.63-19.25 6.55-20.55 5.03-22.73 3.5-24.9 3.5-27.95L3.5-27.95Q3.5-30.7 4.98-32.88 6.45-35.05 9.22-36.3 12-37.55 15.7-37.55L15.7-37.55Q18-37.55 19.78-37.2 21.55-36.85 23.8-36.25L23.8-36.25Q24.8-35.9 25.5-35.8L25.5-35.8 25.2-27.4 22.15-27.4 21.15-33.55Q20.65-34.05 19.07-34.5 17.5-34.95 15.65-34.95L15.65-34.95Q12.2-34.95 10.43-33.5 8.65-32.05 8.65-29.3L8.65-29.3Q8.65-27.3 9.73-25.95 10.8-24.6 12.4-23.65 14-22.7 17.5-21.05L17.5-21.05Q20.75-19.5 22.8-18.25 24.85-17 26.33-14.98 27.8-12.95 27.8-10.15L27.8-10.15Q27.8-7.5 26.33-5.05 24.85-2.6 21.83-1.03 18.8 0.55 14.5 0.55L14.5 0.55ZM44.2-2.95L44.2-34.5 35.6-34.2 33.85-23.75 30.55-23.75 31.4-37.15 62.55-37.15 63.15-23.75 60-23.75 58.35-34.2 49.7-34.5 49.7-2.95 56.8-2.45 56.8 0 37.7 0 37.7-2.45 44.2-2.95ZM66.59 0L66.59-2.45 70.75-2.95 70.75-34.05 66.84-34.7 66.84-37.15 73.39-37.15Q74.8-37.15 77.2-37.35L77.2-37.35Q79.7-37.55 81.09-37.55L81.09-37.55Q88.45-37.55 91.57-35.18 94.7-32.8 94.7-27.7L94.7-27.7Q94.7-24.15 92.72-21.2 90.75-18.25 87.3-17.2L87.3-17.2Q88.9-16.35 90.27-14.28 91.65-12.2 93.65-8.5L93.65-8.5Q95.2-5.7 96.02-4.4 96.84-3.1 97.59-2.95L97.59-2.95 99.55-2.45 99.55 0 92.65 0Q91.84 0 90.84-1.73 89.84-3.45 88.2-7.05L88.2-7.05Q86.4-11 85.07-13.33 83.75-15.65 82.45-16.3L82.45-16.3Q77.09-16.3 76.09-16.35L76.09-16.35 76.09-2.95 81.05-2.45 81.05 0 66.59 0ZM82.05-19Q85.25-19 87.09-21.1 88.95-23.2 88.95-27.35L88.95-27.35Q88.95-31 87.07-32.93 85.2-34.85 80.59-34.85L80.59-34.85Q79-34.85 77.4-34.65L77.4-34.65Q76.4-34.55 76.09-34.55L76.09-34.55 76.09-19.05Q76.84-19 79.2-19L79.2-19 82.05-19ZM105.94-2.95L105.94-34.05 101.84-34.65 101.84-37.15 127.29-37.15 127.99-29.4 125.14-29.4 123.69-34.25 111.29-34.55 111.29-20.45 119.64-20.6 120.34-24.75 123.09-24.75 123.09-13.25 120.34-13.25 119.64-17.55 111.29-17.7 111.29-2.8 125.39-3.3 128.04-9.6 130.99-8.7 129.54 0 101.79 0 101.79-2.45 105.94-2.95ZM138.49-2.95L138.49-34.05 134.39-34.65 134.39-37.15 159.84-37.15 160.54-29.4 157.69-29.4 156.24-34.25 143.84-34.55 143.84-20.45 152.19-20.6 152.89-24.75 155.64-24.75 155.64-13.25 152.89-13.25 152.19-17.55 143.84-17.7 143.84-2.8 157.94-3.3 160.59-9.6 163.54-8.7 162.09 0 134.34 0 134.34-2.45 138.49-2.95ZM179.09-2.95L179.09-34.5 170.49-34.2 168.74-23.75 165.44-23.75 166.29-37.15 197.44-37.15 198.04-23.75 194.89-23.75 193.24-34.2 184.59-34.5 184.59-2.95 191.69-2.45 191.69 0 172.59 0 172.59-2.45 179.09-2.95ZM213.33 0L213.33-2.45 217.48-2.95 217.48-34.05 213.58-34.7 213.58-37.15 220.13-37.15Q221.53-37.15 223.93-37.35L223.93-37.35Q226.43-37.55 227.83-37.55L227.83-37.55Q235.18-37.55 238.31-35.18 241.43-32.8 241.43-27.7L241.43-27.7Q241.43-24.15 239.46-21.2 237.48-18.25 234.03-17.2L234.03-17.2Q235.63-16.35 237.01-14.28 238.38-12.2 240.38-8.5L240.38-8.5Q241.93-5.7 242.76-4.4 243.58-3.1 244.33-2.95L244.33-2.95 246.28-2.45 246.28 0 239.38 0Q238.58 0 237.58-1.73 236.58-3.45 234.93-7.05L234.93-7.05Q233.13-11 231.81-13.33 230.48-15.65 229.18-16.3L229.18-16.3Q223.83-16.3 222.83-16.35L222.83-16.35 222.83-2.95 227.78-2.45 227.78 0 213.33 0ZM228.78-19Q231.98-19 233.83-21.1 235.68-23.2 235.68-27.35L235.68-27.35Q235.68-31 233.81-32.93 231.93-34.85 227.33-34.85L227.33-34.85Q225.73-34.85 224.13-34.65L224.13-34.65Q223.13-34.55 222.83-34.55L222.83-34.55 222.83-19.05Q223.58-19 225.93-19L225.93-19 228.78-19ZM253.58-2.95L253.58-34.05 248.93-34.65 248.93-37.15 263.63-37.15 263.63-34.65 258.98-34.05 258.98-2.95 263.63-2.4 263.63 0 248.98 0 248.98-2.45 253.58-2.95ZM272.83-2.95L272.83-34.05 268.93-34.65 268.93-37.15 275.48-37.15Q277.03-37.15 279.93-37.35L279.93-37.35Q282.83-37.55 284.28-37.55L284.28-37.55Q293.58-37.55 298.1-32.88 302.63-28.2 302.63-19.75L302.63-19.75Q302.63-13.85 300.3-9.28 297.98-4.7 293.78-2.15 289.58 0.4 284.13 0.4L284.13 0.4Q282.93 0.4 280.03 0.2L280.03 0.2Q277.03 0 275.53 0L275.53 0 268.68 0 268.68-2.45 272.83-2.95ZM278.13-2.8Q279.88-2.4 282.63-2.4L282.63-2.4 284.13-2.4Q287.88-2.45 290.75-4.3 293.63-6.15 295.23-9.83 296.83-13.5 296.83-18.75L296.83-18.75Q296.83-26.65 293.4-30.75 289.98-34.85 283.08-34.85L283.08-34.85Q281.63-34.85 279.63-34.65L279.63-34.65Q278.78-34.5 278.13-34.5L278.13-34.5 278.13-2.8ZM310.72-2.95L310.72-34.05 306.63-34.65 306.63-37.15 332.07-37.15 332.77-29.4 329.92-29.4 328.47-34.25 316.07-34.55 316.07-20.45 324.42-20.6 325.13-24.75 327.88-24.75 327.88-13.25 325.13-13.25 324.42-17.55 316.07-17.7 316.07-2.8 330.17-3.3 332.82-9.6 335.77-8.7 334.32 0 306.57 0 306.57-2.45 310.72-2.95ZM339.12 0L339.12-2.45 343.27-2.95 343.27-34.05 339.37-34.7 339.37-37.15 345.92-37.15Q347.32-37.15 349.72-37.35L349.72-37.35Q352.22-37.55 353.62-37.55L353.62-37.55Q360.97-37.55 364.1-35.18 367.22-32.8 367.22-27.7L367.22-27.7Q367.22-24.15 365.25-21.2 363.27-18.25 359.82-17.2L359.82-17.2Q361.42-16.35 362.8-14.28 364.17-12.2 366.17-8.5L366.17-8.5Q367.72-5.7 368.55-4.4 369.37-3.1 370.12-2.95L370.12-2.95 372.07-2.45 372.07 0 365.17 0Q364.37 0 363.37-1.73 362.37-3.45 360.72-7.05L360.72-7.05Q358.92-11 357.6-13.33 356.27-15.65 354.97-16.3L354.97-16.3Q349.62-16.3 348.62-16.35L348.62-16.35 348.62-2.95 353.57-2.45 353.57 0 339.12 0ZM354.57-19Q357.77-19 359.62-21.1 361.47-23.2 361.47-27.35L361.47-27.35Q361.47-31 359.6-32.93 357.72-34.85 353.12-34.85L353.12-34.85Q351.52-34.85 349.92-34.65L349.92-34.65Q348.92-34.55 348.62-34.55L348.62-34.55 348.62-19.05Q349.37-19 351.72-19L351.72-19 354.57-19Z" opacity="1" transform="matrix(1,0,0,1,0,0)" fill="#4a596d" class="wordmark-text-0" data-fill-palette-color="primary" id="text-0"></path></svg></g></svg></g><g transform="matrix(1,0,0,1,0,50.4791731699512)"><svg viewBox="0 0 395.5199999999999 20.117275204359668" height="20.117275204359668" width="395.5199999999999"><g transform="matrix(1,0,0,1,0,0)"><svg width="395.5199999999999" viewBox="-1 -37.25 838.25 39.2" height="20.117275204359668" data-palette-color="#fa0c00"><g class="slogan-text-1" data-fill-palette-color="secondary" id="text-1"><path d="M32.75-3.05L36.3-2.55 36.25 0 20.5 0 20.2-1.6Q21.6-2.45 24.55-3.7L24.55-3.7 22.45-9.1 10.55-9.1 8.35-3.2 12.95-2.55 12.9 0-0.7 0-1-1.6Q0.5-2.55 3.15-3.6L3.15-3.6 14.2-30.75 13.6-32.3 20.15-34.1 32.75-3.05ZM12-12.9L21-12.9 16.5-24.7 12-12.9ZM63.95-4.65L64.4-2.4 58.25 0.8Q57 0.75 55.62-0.43 54.25-1.6 53.55-3.25L53.55-3.25 47.9 0.8Q43.05 0.85 39.85-2.73 36.65-6.3 36.65-11.7L36.65-11.7Q36.65-17.35 40.35-21.05 44.05-24.75 49.75-24.75L49.75-24.75Q51.35-24.75 52.95-24.35L52.95-24.35 52.95-32.25 49.2-32.65 48.85-35.05Q53.15-36.7 57.75-36.8L57.75-36.8 60.2-34.55 60.2-5.7Q60.2-4.35 61.45-4.35L61.45-4.35 63.95-4.65ZM44.25-12.45L44.25-12.45Q44.25-9.15 45.72-6.98 47.2-4.8 49.8-4.8L49.8-4.8Q51.15-4.8 52.95-5.55L52.95-5.55 52.95-19.4Q50.55-20.6 48.2-20.6L48.2-20.6 47.3-20.55Q44.25-17.7 44.25-12.45ZM91.55-23.75L91.7-21.55 89.1-20.25Q83.85-6.45 81.2-0.15L81.2-0.15Q79.45 0.4 76.9 0.4L76.9 0.4Q75.2 0.4 73.8 0.15L73.8 0.15 66.65-19.8 63.6-21.15 63.6-23.75 76.6-23.75 76.75-21.55 74.3-20.3 77.35-10.65 78.05-6.3 78.95-6.3Q80.45-12.35 82.1-20.2L82.1-20.2 79.55-21.15 79.6-23.75 91.55-23.75ZM114.64-14.8L111.74-11.9 98.99-12.05Q99.19-8.35 101.29-6.3 103.39-4.25 106.64-4.25L106.64-4.25Q109.34-4.25 113.04-6.05L113.04-6.05 114.09-3.4 106.24 0.65 104.64 0.75Q99.14 0.75 95.59-2.73 92.04-6.2 92.04-11.55L92.04-11.55Q92.04-17.15 95.64-20.98 99.24-24.8 104.39-24.8L104.39-24.8Q108.89-24.8 111.77-22.03 114.64-19.25 114.64-14.8L114.64-14.8ZM102.64-21L102.64-21Q100.04-19.5 99.29-15.5L99.29-15.5 107.94-15.95Q107.59-18.1 106.12-19.55 104.64-21 102.64-21ZM142.54-16.55L142.54-3.9Q144.99-3.15 146.09-2.45L146.09-2.45 145.89 0 132.69 0 132.54-1.7 135.29-2.95 135.29-14.45Q135.29-19.35 132.04-19.35L132.04-19.35Q130.49-19.35 127.34-17.6L127.34-17.6 127.34-3.8Q129.09-3.25 130.39-2.45L130.39-2.45 130.19 0 116.59 0 116.44-1.7Q117.79-2.45 120.09-3.3L120.09-3.3 120.09-20.1 116.34-20.55 115.99-22.95Q120.29-24.6 124.89-24.7L124.89-24.7 127.34-22.3 127.34-20Q132.39-23.7 135.79-24.55L135.79-24.55Q138.09-24.4 140.09-23 142.09-21.6 142.39-19.4L142.39-19.4 142.54-16.55ZM159.84-4.85L159.84-4.85Q161.24-4.85 164.04-5.5L164.04-5.5 164.59-3.05 156.89 0.8Q154.74 0.9 152.79-0.65 150.84-2.2 150.79-4.15L150.79-4.15 150.79-18.6 147.29-18.55 147.09-21.15Q148.99-22.5 151.14-23.55L151.14-23.55 153.64-30.05 157.04-30.05 157.89-23.55 164.74-23.55 164.84-21.4 162.39-18.5 158.04-18.5 158.04-7.15Q158.04-5.85 158.44-5.35 158.84-4.85 159.84-4.85ZM195.64-4.65L196.09-2.4 189.94 0.8Q188.69 0.75 187.29-0.48 185.89-1.7 185.24-3.35L185.24-3.35Q180.79-0.25 176.69 0.8L176.69 0.8Q175.14 0.7 173.41-0.25 171.69-1.2 170.64-2.75L170.64-2.75Q169.94-3.8 169.89-7.4L169.89-7.4 169.89-20.1 166.14-20.55 165.79-22.95Q170.09-24.6 174.69-24.7L174.69-24.7 177.14-22.5 177.14-8.8Q177.14-4.45 180.34-4.45L180.34-4.45Q182.14-4.45 184.64-5.7L184.64-5.7 184.64-20.15 181.49-20.65 181.14-23.05Q184.84-24.5 189.44-24.7L189.44-24.7 191.89-22.5 191.89-5.7Q191.89-4.35 193.14-4.35L193.14-4.35 195.64-4.65ZM208.18-18.4L213.18-24Q214.38-24.45 215.68-24.45L215.68-24.45Q218.28-24.45 219.88-22.95L219.88-22.95Q219.63-17.45 218.03-13.5L218.03-13.5 214.23-13.5 213.23-19.1Q210.48-17.05 208.18-14.25L208.18-14.25 208.18-4.15Q211.68-3.45 213.58-2.45L213.58-2.45 213.38 0 197.38 0 197.23-1.7Q198.63-2.5 200.93-3.3L200.93-3.3 200.93-20.1 197.18-20.55 196.83-22.95Q201.13-24.6 205.73-24.7L205.73-24.7 208.18-22.5 208.18-18.4ZM243.28-14.8L240.38-11.9 227.63-12.05Q227.83-8.35 229.93-6.3 232.03-4.25 235.28-4.25L235.28-4.25Q237.98-4.25 241.68-6.05L241.68-6.05 242.73-3.4 234.88 0.65 233.28 0.75Q227.78 0.75 224.23-2.73 220.68-6.2 220.68-11.55L220.68-11.55Q220.68-17.15 224.28-20.98 227.88-24.8 233.03-24.8L233.03-24.8Q237.53-24.8 240.41-22.03 243.28-19.25 243.28-14.8L243.28-14.8ZM231.28-21L231.28-21Q228.68-19.5 227.93-15.5L227.93-15.5 236.58-15.95Q236.23-18.1 234.76-19.55 233.28-21 231.28-21ZM252.53-18.85L252.53-18.85Q252.53-17.8 253.3-17 254.08-16.2 258.03-14.28 261.98-12.35 263.38-10.6 264.78-8.85 264.78-6.6L264.78-6.6Q264.78-3.25 262.1-1.13 259.43 1 255.08 1L255.08 1Q250.18 1 245.18-1.65L245.18-1.65 247.68-7.5Q252.28-4.1 256.98-2.85L256.98-2.85Q258.03-3.75 258.03-5.1L258.03-5.1Q258.03-6.25 257.13-7.1 256.23-7.95 252.43-9.8 248.63-11.65 247.3-13.33 245.98-15 245.98-17.2L245.98-17.2Q245.98-20.6 248.93-22.7 251.88-24.8 256.48-24.8L256.48-24.8Q260.78-24.8 263.78-23.2L263.78-23.2 263.83-21.8Q263.83-18.9 262.98-16.4L262.98-16.4 259.13-16.4 257.93-20.8Q256.03-21.3 254.43-21.2L254.43-21.2Q252.53-20.55 252.53-18.85Z" fill="#4a596d" data-fill-palette-color="primary"></path><path d="M323.17-3.05L326.72-2.55 326.67 0 310.92 0 310.62-1.6Q312.02-2.45 314.97-3.7L314.97-3.7 312.87-9.1 300.97-9.1 298.77-3.2 303.37-2.55 303.32 0 289.72 0 289.42-1.6Q290.92-2.55 293.57-3.6L293.57-3.6 304.62-30.75 304.02-32.3 310.57-34.1 323.17-3.05ZM302.42-12.9L311.42-12.9 306.92-24.7 302.42-12.9ZM338.17-18.4L343.17-24Q344.37-24.45 345.67-24.45L345.67-24.45Q348.27-24.45 349.87-22.95L349.87-22.95Q349.62-17.45 348.02-13.5L348.02-13.5 344.22-13.5 343.22-19.1Q340.47-17.05 338.17-14.25L338.17-14.25 338.17-4.15Q341.67-3.45 343.57-2.45L343.57-2.45 343.37 0 327.37 0 327.22-1.7Q328.62-2.5 330.92-3.3L330.92-3.3 330.92-20.1 327.17-20.55 326.82-22.95Q331.12-24.6 335.72-24.7L335.72-24.7 338.17-22.5 338.17-18.4ZM373.26-14.8L370.36-11.9 357.61-12.05Q357.81-8.35 359.91-6.3 362.01-4.25 365.26-4.25L365.26-4.25Q367.96-4.25 371.66-6.05L371.66-6.05 372.71-3.4 364.86 0.65 363.26 0.75Q357.76 0.75 354.21-2.73 350.66-6.2 350.66-11.55L350.66-11.55Q350.66-17.15 354.26-20.98 357.86-24.8 363.01-24.8L363.01-24.8Q367.51-24.8 370.39-22.03 373.26-19.25 373.26-14.8L373.26-14.8ZM361.26-21L361.26-21Q358.66-19.5 357.91-15.5L357.91-15.5 366.56-15.95Q366.21-18.1 364.74-19.55 363.26-21 361.26-21Z" fill="#fa0c00" data-fill-palette-color="secondary"></path><path d="M422.8-17.45L422.8-17.45Q426.6-16.75 428.67-14.45 430.75-12.15 430.75-9.1L430.75-9.1Q430.75-5.05 427.27-2.6 423.8-0.15 417.8 0L417.8 0 400.5 0 400.2-1.6Q401.65-2.55 404.45-3.65L404.45-3.65 404.45-29.9 400.9-30.35 400.95-32.9Q408.25-33.3 416.55-33.3L416.55-33.3Q422.25-33.3 425.7-30.95 429.15-28.6 429.15-24.85L429.15-24.85Q429.15-22.35 427.52-20.2 425.9-18.05 422.8-17.45ZM417.5-29.4L412.05-28.65 412.05-18.8 414.35-18.8Q417.9-18.8 419.67-20.33 421.45-21.85 421.45-24.05L421.45-24.05Q421.45-25.85 420.32-27.43 419.2-29 417.5-29.4L417.5-29.4ZM412.05-4.25L416.05-3.85 416.9-3.8Q419.7-3.8 421.2-5.4 422.7-7 422.7-9.2L422.7-9.2Q422.7-11.75 420.87-13.6 419.05-15.45 416.3-15.5L416.3-15.5 412.05-15.5 412.05-4.25ZM455.6-14.8L452.7-11.9 439.95-12.05Q440.15-8.35 442.25-6.3 444.35-4.25 447.6-4.25L447.6-4.25Q450.3-4.25 453.99-6.05L453.99-6.05 455.05-3.4 447.2 0.65 445.6 0.75Q440.1 0.75 436.55-2.73 433-6.2 433-11.55L433-11.55Q433-17.15 436.6-20.98 440.2-24.8 445.35-24.8L445.35-24.8Q449.85-24.8 452.72-22.03 455.6-19.25 455.6-14.8L455.6-14.8ZM443.6-21L443.6-21Q441-19.5 440.25-15.5L440.25-15.5 448.9-15.95Q448.55-18.1 447.07-19.55 445.6-21 443.6-21ZM469.64-4.85L469.64-4.85Q471.04-4.85 473.84-5.5L473.84-5.5 474.39-3.05 466.69 0.8Q464.54 0.9 462.59-0.65 460.64-2.2 460.59-4.15L460.59-4.15 460.59-18.6 457.09-18.55 456.89-21.15Q458.79-22.5 460.94-23.55L460.94-23.55 463.44-30.05 466.84-30.05 467.69-23.55 474.54-23.55 474.64-21.4 472.19-18.5 467.84-18.5 467.84-7.15Q467.84-5.85 468.24-5.35 468.64-4.85 469.64-4.85ZM488.74-4.85L488.74-4.85Q490.14-4.85 492.94-5.5L492.94-5.5 493.49-3.05 485.79 0.8Q483.64 0.9 481.69-0.65 479.74-2.2 479.69-4.15L479.69-4.15 479.69-18.6 476.19-18.55 475.99-21.15Q477.89-22.5 480.04-23.55L480.04-23.55 482.54-30.05 485.94-30.05 486.79-23.55 493.64-23.55 493.74-21.4 491.29-18.5 486.94-18.5 486.94-7.15Q486.94-5.85 487.34-5.35 487.74-4.85 488.74-4.85ZM517.99-14.8L515.09-11.9 502.34-12.05Q502.54-8.35 504.64-6.3 506.74-4.25 509.99-4.25L509.99-4.25Q512.69-4.25 516.39-6.05L516.39-6.05 517.44-3.4 509.59 0.65 507.99 0.75Q502.49 0.75 498.94-2.73 495.39-6.2 495.39-11.55L495.39-11.55Q495.39-17.15 498.99-20.98 502.59-24.8 507.74-24.8L507.74-24.8Q512.24-24.8 515.11-22.03 517.99-19.25 517.99-14.8L517.99-14.8ZM505.99-21L505.99-21Q503.39-19.5 502.64-15.5L502.64-15.5 511.29-15.95Q510.94-18.1 509.46-19.55 507.99-21 505.99-21ZM530.69-18.4L535.69-24Q536.89-24.45 538.19-24.45L538.19-24.45Q540.79-24.45 542.39-22.95L542.39-22.95Q542.14-17.45 540.54-13.5L540.54-13.5 536.74-13.5 535.74-19.1Q532.99-17.05 530.69-14.25L530.69-14.25 530.69-4.15Q534.19-3.45 536.09-2.45L536.09-2.45 535.89 0 519.89 0 519.74-1.7Q521.14-2.5 523.44-3.3L523.44-3.3 523.44-20.1 519.69-20.55 519.34-22.95Q523.64-24.6 528.24-24.7L528.24-24.7 530.69-22.5 530.69-18.4Z" fill="#4a596d" data-fill-palette-color="primary"></path><path d="M584.73-33.9L584.73-33.9Q591.88-33.9 596.48-28.93 601.08-23.95 601.08-16L601.08-16Q601.08-8.35 596.6-3.68 592.13 1 585.13 1L585.13 1Q577.93 1 573.33-3.75 568.73-8.5 568.73-16.25L568.73-16.25Q568.73-24.05 573.25-28.98 577.78-33.9 584.73-33.9ZM580.43-28.8L580.43-28.8Q578.78-27.4 577.75-24.25 576.73-21.1 576.73-17.15L576.73-17.15Q576.73-11.1 579.13-7.25 581.53-3.4 585.98-3.4L585.98-3.4Q587.13-3.4 588.83-3.85L588.83-3.85Q590.73-5.35 591.88-8.6 593.03-11.85 593.03-15.85L593.03-15.85Q593.03-21.9 590.58-25.7 588.13-29.5 584.08-29.5L584.08-29.5Q582.38-29.5 580.43-28.8ZM628.78-16.55L628.78-3.9Q631.23-3.15 632.33-2.45L632.33-2.45 632.12 0 618.93 0 618.78-1.7 621.53-2.95 621.53-14.45Q621.53-19.35 618.28-19.35L618.28-19.35Q616.73-19.35 613.58-17.6L613.58-17.6 613.58-3.8Q615.33-3.25 616.63-2.45L616.63-2.45 616.43 0 602.83 0 602.68-1.7Q604.03-2.45 606.33-3.3L606.33-3.3 606.33-20.1 602.58-20.55 602.23-22.95Q606.53-24.6 611.13-24.7L611.13-24.7 613.58-22.3 613.58-20Q618.63-23.7 622.03-24.55L622.03-24.55Q624.33-24.4 626.33-23 628.33-21.6 628.62-19.4L628.62-19.4 628.78-16.55Z" fill="#fa0c00" data-fill-palette-color="secondary"></path><path d="M690.72-3.05L694.27-2.55 694.22 0 678.47 0 678.17-1.6Q679.57-2.45 682.52-3.7L682.52-3.7 680.42-9.1 668.52-9.1 666.32-3.2 670.92-2.55 670.87 0 657.27 0 656.97-1.6Q658.47-2.55 661.12-3.6L661.12-3.6 672.17-30.75 671.57-32.3 678.12-34.1 690.72-3.05ZM669.97-12.9L678.97-12.9 674.47-24.7 669.97-12.9Z" fill="#4a596d" data-fill-palette-color="primary"></path><path d="M743.81-17.45L743.81-17.45Q747.61-16.75 749.68-14.45 751.76-12.15 751.76-9.1L751.76-9.1Q751.76-5.05 748.28-2.6 744.81-0.15 738.81 0L738.81 0 721.51 0 721.21-1.6Q722.66-2.55 725.46-3.65L725.46-3.65 725.46-29.9 721.91-30.35 721.96-32.9Q729.26-33.3 737.56-33.3L737.56-33.3Q743.26-33.3 746.71-30.95 750.16-28.6 750.16-24.85L750.16-24.85Q750.16-22.35 748.53-20.2 746.91-18.05 743.81-17.45ZM738.51-29.4L733.06-28.65 733.06-18.8 735.36-18.8Q738.91-18.8 740.68-20.33 742.46-21.85 742.46-24.05L742.46-24.05Q742.46-25.85 741.33-27.43 740.21-29 738.51-29.4L738.51-29.4ZM733.06-4.25L737.06-3.85 737.91-3.8Q740.71-3.8 742.21-5.4 743.71-7 743.71-9.2L743.71-9.2Q743.71-11.75 741.88-13.6 740.06-15.45 737.31-15.5L737.31-15.5 733.06-15.5 733.06-4.25ZM761.86-27.9L761.86-27.9Q758.71-29.3 756.61-31.95L756.61-31.95Q758.26-35.25 760.91-37.25L760.91-37.25Q763.91-35.65 765.96-32.85L765.96-32.85Q764.56-29.85 761.86-27.9ZM765.11-22.5L765.11-3.95Q767.46-3.2 768.76-2.45L768.76-2.45 768.56 0 754.21 0 754.06-1.7Q755.56-2.55 757.86-3.35L757.86-3.35 757.86-20.1 754.11-20.55 753.76-22.95Q758.06-24.6 762.66-24.7L762.66-24.7 765.11-22.5ZM798.4-3.75L798.85-1.05 790.75 0.45Q789.55-0.15 787.9-2.65L787.9-2.65 783.55-9.7 781.35-9.55 781.35-3.7Q783.05-3.1 784.1-2.45L784.1-2.45 783.9 0 770.55 0 770.4-1.7Q771.8-2.5 774.1-3.3L774.1-3.3 774.1-32.25 770.35-32.65 770-35.05Q774.3-36.7 778.9-36.8L778.9-36.8 781.35-34.6 781.35-12.15 783.2-13.35 788.8-20.35 785.3-20.55 784.95-22.95Q789.3-24.45 794.8-24.7L794.8-24.7 796.8-21.6 789.3-12.55 794.2-5.4Q795.5-3.7 797.5-3.7L797.5-3.7 798.4-3.75ZM823.35-14.8L820.45-11.9 807.7-12.05Q807.9-8.35 810-6.3 812.1-4.25 815.35-4.25L815.35-4.25Q818.05-4.25 821.75-6.05L821.75-6.05 822.8-3.4 814.95 0.65 813.35 0.75Q807.85 0.75 804.3-2.73 800.75-6.2 800.75-11.55L800.75-11.55Q800.75-17.15 804.35-20.98 807.95-24.8 813.1-24.8L813.1-24.8Q817.6-24.8 820.48-22.03 823.35-19.25 823.35-14.8L823.35-14.8ZM811.35-21L811.35-21Q808.75-19.5 808-15.5L808-15.5 816.65-15.95Q816.3-18.1 814.83-19.55 813.35-21 811.35-21ZM833.6 1.95L833.6 1.95Q832.45 1.5 831 0.38 829.55-0.75 828.8-1.75L828.8-1.75Q830.55-5.25 832.65-6.45L832.65-6.45Q835.2-5.5 837.25-2.75L837.25-2.75Q836.1 0.25 833.6 1.95Z" fill="#fa0c00" data-fill-palette-color="secondary"></path></g></svg></g></svg></g></svg></g></svg></g><g transform="matrix(1,0,0,1,95.0342346196474,0)"><svg viewBox="0 0 207.42913076070505 97.56429165329763" height="97.56429165329763" width="207.42913076070505"><g><svg version="1.1" xmlns="http://www.w3.org/2000/svg" xmlns:xlink="http://www.w3.org/1999/xlink" x="0" y="0" viewBox="0 0 100 47.035000000000004" enable-background="new 0 0 100 47.035" xml:space="preserve" width="207.42913076070505" height="97.56429165329763" class="icon-icon-0" data-fill-palette-color="accent" id="icon-0"><path fill="#4a596d" d="M43.279 13.414l9.528-3.797 0.082-0.032 0.138-0.042c1.277-0.385 2.538-0.579 3.748-0.579 2.897 0 5.488 1.117 7.318 3.146 1.019 1.124 1.756 2.474 2.177 3.938 0.721-1.712 1.035-4.059-0.267-6.924C59.432-0.882 43.279 13.414 43.279 13.414z" data-fill-palette-color="accent"></path><path fill="#4a596d" d="M42.775 10.891c0 0.644-2.296 4.534-6.33 4.534-2.704 0-4.562-1.556-6.247-2.136-2.045-0.704-3.612-0.947-3.612-0.947-1.117 0-1.453-0.596-1.453-1.309 0-0.712 0.665-1.309 1.309-1.309h15.164C42.253 9.724 42.775 10.245 42.775 10.891L42.775 10.891z" data-fill-palette-color="accent"></path><path fill="#4a596d" d="M11.327 10.606c-0.585 0-1.059-0.476-1.059-1.062l0 0c0-0.584 0.474-1.059 1.059-1.059l0 0h10.567c0.584 0 1.059 0.474 1.059 1.059l0 0c0 0.585-0.474 1.062-1.059 1.062l0 0H11.327L11.327 10.606z" data-fill-palette-color="accent"></path><path fill="#4a596d" d="M39.583 37.755l18.843-0.001c1.081-0.002 1.953-0.874 1.953-1.943-0.001-0.671-0.333-1.255-0.839-1.608-0.296 0.656-0.523 1.55-2.501 1.563-2.884 0-12.786-0.004-20.86-0.008C37.595 35.879 38.826 36.639 39.583 37.755z" data-fill-palette-color="accent"></path><path fill="#4a596d" d="M19.107 12.545c-4.005 0.001-7.722 1.245-10.796 3.358-1.351 0-5.036 0.002-5.036 0.002-0.578 0.012-1.044 0.948-1.048 2.104 0 0.003 0 0.005 0 0.008 0 0.001 0 0.001 0 0.002s0 0.002 0 0.003c0 1.163 0.468 2.104 1.049 2.118l0.618 0.001C1.462 23.349 0.001 27.33 0 31.656c0 1.039 0.083 2.059 0.244 3.054 0 0 1.924-0.41 1.776-3.054 0.016-9.421 7.668-17.076 17.088-17.091 4.215 0 8.072 1.536 11.055 4.074l2.092-0.834C28.827 14.551 24.197 12.545 19.107 12.545z" data-fill-palette-color="accent"></path><path fill="#4a596d" d="M79.488 4.97c0-2.704-0.618-4.894-1.387-4.959C78.101 0.01 78.092 0 78.092 0c-0.009 0-0.016 0-0.022 0-0.001 0-0.001 0-0.002 0s-0.001 0.001-0.002 0.001c-4.657 0.008-8.42 2.22-8.436 4.954 0.053-0.002 0.104-0.012 0.155-0.012 1.233 0 2.373 0.603 3.063 1.616l2.405 3.09c0.88 0.185 1.821 0.289 2.807 0.292 0.002 0 0.004 0.002 0.006 0.002s0.003-0.001 0.005-0.001c0.006 0 0.014 0.001 0.021 0.001 0 0 0.008-0.01 0.009-0.011C78.868 9.868 79.488 7.676 79.488 4.97z" data-fill-palette-color="accent"></path><path fill="#4a596d" d="M60.573 19.559c0.029-0.208 0.043-0.42 0.043-0.618-0.002-0.146-0.023-0.291-0.038-0.436H46.842c-0.557 0-1.01 0.453-1.01 1.009 0 0 0.007 4.405 0.01 6.805 0.049-0.015 0.096-0.036 0.146-0.048 1.483-1.266 3.638-2.006 5.932-2.006 2.329 0 4.509 0.761 5.995 2.062 0.577 0.156 1.095 0.443 1.539 0.815L60.573 19.559z" data-fill-palette-color="accent"></path><path fill="#4a596d" d="M65.699 4.79c-0.663-1.098-1.578-1.136-1.886-1.152l0 0c-0.044-0.002-0.044 0-0.044 0l0 0-0.057 0.006-4.918 0.005V3.65c-0.558 0-1.011-0.451-1.011-1.008l0 0c-0.002-0.558 0.449-1.01 1.007-1.01l0 0 4.796-0.005c0.052-0.004 0.128-0.008 0.227-0.008l0 0c0.632-0.017 2.471 0.221 3.618 2.129l0 0c0.286 0.478 0.131 1.098-0.346 1.388l0 0c-0.162 0.097-0.342 0.144-0.52 0.144l0 0C66.224 5.278 65.889 5.104 65.699 4.79L65.699 4.79z" data-fill-palette-color="accent"></path><path fill="#4a596d" d="M58.568 29.119c-0.36-0.52-0.946-0.873-1.619-0.911-1.041-1.151-2.899-1.921-5.029-1.921-2.123 0-3.977 0.765-5.019 1.909h-0.012c-1.172 0-2.122 0.948-2.122 2.121 0 1.168 0.948 2.119 2.122 2.119h0.012c1.041 1.145 2.896 1.911 5.019 1.911 2.13 0 3.988-0.771 5.029-1.923 0.709-0.04 1.323-0.429 1.677-0.996 2.099 0.108 3.768 1.825 3.772 3.953-0.005 2.189-1.778 3.963-3.97 3.967H38.158c-0.385-0.933-1.298-1.571-2.365-1.571h-16.7l-2.24 3.95c-4.469-1.065-7.794-5.068-7.803-9.862 0.011-5.607 4.546-10.143 10.152-10.154 0.85 0.001 1.67 0.12 2.458 0.317l6.096-2.429c-2.428-1.7-5.374-2.708-8.557-2.714C10.948 16.898 4.24 23.604 4.225 31.861c0.015 8.254 6.723 14.959 14.976 14.973 3.891-0.007 7.435-1.498 10.098-3.938h6.494c1.052 0 1.952-0.621 2.347-1.531h20.29c3.306 0 5.988-2.68 5.988-5.986C64.418 32.114 61.812 29.466 58.568 29.119zM51.858 31.829c-0.836 0-1.514-0.678-1.514-1.514 0-0.838 0.678-1.514 1.514-1.514s1.514 0.676 1.514 1.514C53.372 31.151 52.694 31.829 51.858 31.829z" data-fill-palette-color="accent"></path><path fill="#4a596d" d="M85.025 17.086c-1.557 0.002-3.057 0.245-4.47 0.688l2.596 4.321c0.608-0.115 1.233-0.183 1.874-0.184 5.604 0.011 10.14 4.547 10.152 10.153-0.013 5.604-4.549 10.141-10.152 10.15-5.604-0.01-10.143-4.547-10.152-10.15 0.005-2.824 1.173-5.362 3.035-7.199l2.275 3.213c-0.895 1.083-1.431 2.472-1.431 3.987 0 3.456 2.802 6.26 6.263 6.26 3.458-0.002 6.261-2.804 6.263-6.26-0.002-3.461-2.805-6.266-6.263-6.268-0.637 0-1.251 0.097-1.829 0.273l-5.682-9.452c2.274-1.115 4.819-1.76 7.52-1.764 3.177 0 6.148 0.862 8.704 2.368 2.14 1.086 2.96-0.565 2.96-0.565-3.243-2.461-7.289-3.923-11.664-3.923-3.101 0-6.022 0.751-8.622 2.053l-0.552-0.918L71.12 7.79c-0.479-0.738-1.462-0.948-2.201-0.471-0.735 0.477-0.946 1.462-0.47 2.199l3.493 6.921 0.618 0.872c-4.191 3.549-6.862 8.839-6.863 14.752 0 2.989 0.686 5.828 1.903 8.358 0 0 1.674-0.924 1.125-2.84-0.589-1.731-0.909-3.589-0.909-5.52 0.01-5.195 2.335-9.846 5.983-13.002l1.291 1.824c-3.085 2.743-5.035 6.732-5.043 11.179 0.015 8.253 6.723 14.959 14.976 14.973 8.256-0.014 14.961-6.72 14.977-14.973C99.986 23.809 93.281 17.099 85.025 17.086zM81.489 29.921l2.007 2.836c0.305 0.471 0.815 0.726 1.336 0.726 0.296 0 0.596-0.082 0.861-0.255 0.736-0.478 0.948-1.462 0.473-2.198l-1.829-3.042c0.222-0.038 0.446-0.068 0.679-0.069 2.286 0.006 4.137 1.857 4.143 4.147-0.006 2.282-1.856 4.134-4.143 4.14-2.287-0.006-4.139-1.857-4.143-4.14h-0.002C80.875 31.275 81.106 30.548 81.489 29.921z" data-fill-palette-color="accent"></path><g fill="#4a596d" data-fill-palette-color="accent"><path fill="#4a596d" d="M93.415 10.905c-0.261 0.696-0.946 1.083-1.537 0.9-2.522-0.787-5.161-1.133-7.801-1.03-0.618 0.025-1.178-0.528-1.251-1.267-0.04-0.447-0.078-0.893-0.12-1.341-0.069-0.74 0.47-1.397 1.211-1.428 3.102-0.121 6.202 0.288 9.164 1.21 0.709 0.221 1.059 0.996 0.797 1.694C93.724 10.063 93.57 10.485 93.415 10.905z" data-fill-palette-color="accent"></path></g><path fill="#4a596d" d="M62.592 13.462c-1.349-1.498-3.373-2.486-5.817-2.48-0.994 0-2.053 0.159-3.168 0.493l-0.054 0.017L17.096 26.015l0.002 0.006c-2.396 0.863-4.108 3.148-4.109 5.841 0.001 1.447 0.509 2.765 1.338 3.819l0 0c0 0.001 0.001 0.001 0.002 0.002 0.019 0.023 0.031 0.049 0.049 0.071h0.015c0.661 0.814 1.506 1.47 2.495 1.867l0.484-0.853 0.533-0.942c-0.086-0.029-0.168-0.068-0.25-0.105-1.543-0.618-2.642-2.1-2.646-3.86 0.004-2.317 1.879-4.19 4.193-4.192 1.957 0.002 3.585 1.348 4.048 3.162H20.93c-0.351-0.594-0.989-0.995-1.728-0.996-1.115 0.002-2.018 0.905-2.02 2.023 0.002 1.093 0.871 1.979 1.956 2.015h0.129c0.724-0.023 1.346-0.432 1.683-1.023h2.312c-0.332 1.34-1.303 2.42-2.581 2.905h3.345c0.666-0.822 1.123-1.815 1.3-2.905h3.971c-0.102 1.018-0.358 1.987-0.736 2.896h5.075c0.254-0.936 0.435-1.899 0.504-2.896h2.243c0.169 0.315 0.493 0.539 0.878 0.539l6.877 0.014c-0.85-0.758-1.388-1.859-1.388-3.086 0-1 0.359-1.916 0.952-2.633l-5.872-0.013c-0.522-2.402-1.491-4.642-2.824-6.616l11.468-4.568H62.14c0.315 0.761 0.486 1.591 0.497 2.439 0.002 0.304-0.022 0.615-0.065 0.927l-1.232 8.353c0.68 0.267 1.312 0.623 1.886 1.056l1.345-9.122c0.057-0.405 0.088-0.809 0.088-1.214C64.654 16.929 63.947 14.958 62.592 13.462zM25.32 30.831c-0.338-2.012-1.637-3.694-3.415-4.559l4.323-1.723c1.686 1.621 2.803 3.82 3.057 6.28L25.32 30.831 25.32 30.831zM36.213 30.831h-2.089c-0.216-3.069-1.344-5.89-3.133-8.178l2.082-0.829C34.909 24.394 36.04 27.483 36.213 30.831z" data-fill-palette-color="accent"></path></svg></g></svg></g><g></g></svg></g><defs></defs></svg><rect width="395.52" height="198.635555379869" fill="none" stroke="none" visibility="hidden"></rect></g></svg></g></svg>